<svg width="612" height="329" viewBox="0 0 612 329" fill="none" xmlns="http://www.w3.org/2000/svg">
<path d="M148.253 170.689C159.46 162.907 201.156 148.889 220.604 142.853H242.447C255.411 146.066 284.535 153.791 297.326 158.976C310.117 164.161 333.436 194.866 342.799 209.126L332.611 228.633C306.684 254.215 327.574 276.8 341.402 285.154C320.661 285.154 311.73 277.376 309.858 273.487C311.932 285.241 313.603 314.106 314.179 327.07H161.641V303.51H103.462C98.1005 244.848 134.244 180.417 148.253 170.689Z" fill="url(#paint0_linear)"/>
<ellipse cx="233.172" cy="161.361" rx="25.9725" ry="18.5082" fill="#2FAB73"/>
<path d="M213.89 159.45C217.262 140.065 216.074 122.128 215.547 115.939C216.284 110.145 246.944 120.997 261.692 126.792C253.37 131.006 251.114 152.075 251.026 162.083C251.289 165.376 249.235 172.355 238.911 173.935C221.634 175.937 215.032 165.112 213.89 159.45Z" fill="url(#paint1_linear)"/>
<mask id="mask0" mask-type="alpha" maskUnits="userSpaceOnUse" x="213" y="114" width="49" height="61">
<path d="M213.89 159.45C217.262 140.065 216.074 122.128 215.547 115.939C216.284 110.145 246.944 120.997 261.692 126.792C253.37 131.006 251.114 152.075 251.026 162.083C251.289 165.376 249.235 172.355 238.911 173.935C221.634 175.937 215.032 165.112 213.89 159.45Z" fill="#BABABA"/>
</mask>
<g mask="url(#mask0)">
<path opacity="0.1" d="M256.589 146.902C235.826 143.662 220.433 125.408 215.331 116.686C227.182 114.241 253.828 110.819 265.608 116.686C277.389 122.553 264.504 139.275 256.589 146.902Z" fill="black"/>
</g>
<path d="M250.264 130.341C284.366 128.858 285.34 82.2217 281.565 59.0888C219.951 6.86484 195.211 47.8999 190.544 74.9455C196.241 94.0284 216.161 131.824 250.264 130.341Z" fill="url(#paint2_linear)"/>
<path d="M206.245 12.4749C196.434 9.38228 175.98 7.83601 172.653 26.3916C172.653 38.3887 201.606 35.3494 206.245 12.4749Z" fill="#30235B"/>
<path d="M218.058 74.0981L231.953 86.0323L230.445 92.9924L217.485 81.6183L218.058 74.0981Z" fill="#111111"/>
<path d="M203.929 84.83C215.791 94.8794 216.56 110.571 215.461 117.161C211.617 116.131 200.881 109.459 188.69 91.0079C169.25 51.3045 192.671 21.6093 206.812 11.7246C244.703 -10.3099 295.362 23.8745 286.507 50.0277C277.652 76.1809 235.299 70.1403 219.58 60.1183C222.874 70.003 219.854 79.7504 217.932 83.3885C210.519 66.0903 189.102 72.2682 203.929 84.83Z" fill="#30235B"/>
<path d="M229.321 6.62191C254.553 -0.625548 269.92 12.4378 274.45 19.8754C269.361 17.1352 255.258 13.299 239.555 19.8754C214.726 31.2834 209.301 55.6093 209.693 66.3463L193.252 65.1719V59.1324C194.762 44.6487 204.089 13.8694 229.321 6.62191Z" fill="white"/>
<ellipse cx="199.985" cy="81.0673" rx="19.2976" ry="23.6088" fill="white"/>
<ellipse cx="199.985" cy="81.0673" rx="19.2976" ry="23.6088" fill="white"/>
<ellipse cx="199.985" cy="81.0673" rx="9.21133" ry="11.2692" fill="#24C28A"/>
<path opacity="0.5" d="M284.303 77.4645C277.15 75.2537 269.447 79.9667 266.489 82.5996C261.111 87.7347 269.266 100.792 278.695 94.7773C286.238 89.9655 285.577 81.2305 284.303 77.4645Z" fill="#E6FCFF"/>
<path fill-rule="evenodd" clip-rule="evenodd" d="M263.458 81.0496C273.804 71.4926 283.615 73.1265 287.228 75.138C289.318 80.6734 287.228 96.8487 275.69 98.2827C266.459 99.4299 263.296 92.2937 262.868 88.5821C261.114 87.165 259.948 88.3865 259.585 89.1745C259.888 99.4895 251.596 106.467 242.696 104.849C235.577 103.555 232.478 96.4406 231.818 93.0453H230.346V87.0097C239.617 77.9321 252.425 80.1571 257.67 82.4043C259.049 81.3205 262.104 81.0496 263.458 81.0496ZM283.76 78.1121C276.607 75.9012 270.072 79.6893 267.114 82.3221C261.736 87.4572 268.8 100.038 278.669 94.7771C284.579 91.6271 285.033 81.8781 283.76 78.1121ZM243.315 84.8433C247.22 83.5722 255.185 82.7217 255.795 89.4888C256.558 97.9476 248.861 104.188 242.136 100.86C237.266 98.45 235.272 93.5102 235.272 90.3901C235.272 87.8941 240.634 85.6522 243.315 84.8433Z" fill="#111111"/>
<path opacity="0.5" d="M255.821 89.489C255.211 82.7219 247.246 83.5724 243.34 84.8435C240.66 85.6524 235.298 87.8943 235.298 90.3903C235.298 93.5104 237.292 98.4502 242.162 100.86C248.887 104.188 256.583 97.9478 255.821 89.489Z" fill="#E6FCFF"/>
<path d="M103.413 303.585C109.412 330.321 145.039 330.375 162.102 327.061L293.628 308.058C295.323 309.531 299.384 313.413 302.061 317.165C304.738 320.916 307.192 318.279 308.084 316.491C311.939 320.668 314.777 318.68 315.714 317.165C319.034 321.344 321.827 319.885 322.809 318.633C327.413 322.06 328.576 319.082 328.581 317.165C322.299 303.862 311.029 290.529 306.18 285.525L273.385 288.528L166.83 277.664C146.614 263.481 95.9136 270.165 103.413 303.585Z" fill="url(#paint3_linear)"/>
<path d="M358.251 263.133C352.31 282.319 344.12 285.671 340.767 284.949C305.481 261.337 320.633 237.141 332.62 227.995L363.865 163.664C359.341 160.126 354.301 149.059 354.818 142.08C355.232 136.497 359.04 136.31 360.892 136.915C361.409 131.13 365.588 131.314 367.613 132.129C369.371 125.822 374.463 127.175 376.789 128.639C377.099 119.954 383.122 121.144 386.094 122.824L391.312 136.915C393.444 137.211 398.388 137.895 401.111 138.267C404.515 138.731 408.848 139.35 406.681 144.146C404.949 147.984 396.16 161.115 391.982 167.201C383.214 191.184 364.193 243.946 358.251 263.133Z" fill="url(#paint4_linear)"/>
<path d="M268.31 320.167H337.116V320.167C337.116 323.979 334.025 327.07 330.213 327.07H275.212C271.4 327.07 268.31 323.979 268.31 320.167V320.167Z" fill="#B4B4B4"/>
<path d="M359.053 235.218C359.534 234.064 360.662 233.313 361.912 233.313H478.112C480.322 233.313 481.821 235.561 480.971 237.601L444.466 325.164C443.985 326.318 442.858 327.07 441.608 327.07H325.407C323.197 327.07 321.698 324.821 322.549 322.781L359.053 235.218Z" fill="url(#paint5_linear)"/>
<path d="M166.87 277.632L169.956 253.343" stroke="#30235B" stroke-width="0.619401"/>
<path d="M309.764 273.631C309.301 270.78 308.514 263.889 309.069 259.134" stroke="#30235B" stroke-width="0.619401"/>
<path d="M308.925 264.451L306.271 259.072" stroke="#30235B" stroke-width="0.619401"/>
<path d="M307.986 316.269L299.368 305.392" stroke="#30235B" stroke-width="0.619401"/>
<path d="M315.614 316.807L302.164 299.352" stroke="#30235B" stroke-width="0.619401"/>
<path d="M322.685 318.407L305.967 294.319" stroke="#30235B" stroke-width="0.619401"/>
<path d="M360.888 137.019C361.349 139.415 362.851 145.078 365.177 148.566" stroke="#30235B" stroke-width="0.619401"/>
<path d="M376.818 128.69C377.522 131.162 379.356 136.737 381.056 139.262" stroke="#30235B" stroke-width="0.619401"/>
<path d="M367.52 132.282C368.349 134.973 370.409 140.889 372.012 143.026" stroke="#30235B" stroke-width="0.619401"/>
<path d="M391.246 136.906L393.81 144.408" stroke="#30235B" stroke-width="0.619401"/>
<ellipse cx="405.978" cy="282.423" rx="7.86131" ry="11.3813" transform="rotate(19.8998 405.978 282.423)" fill="white"/>
<rect x="609.137" y="207.004" width="126.405" height="10.3543" transform="rotate(117.371 609.137 207.004)" fill="#E0E0E0"/>
<rect x="519.833" y="311.447" width="58.4432" height="15.6235" rx="3.09701" fill="#30235B"/>
<rect x="602.449" y="208.019" width="67.8967" height="10.3543" transform="rotate(-139.766 602.449 208.019)" fill="#E0E0E0"/>
<rect x="551.719" y="159.653" width="20.0325" height="3.56661" transform="rotate(162.128 551.719 159.653)" fill="#E0E0E0"/>
<circle cx="604.767" cy="203.849" r="7.23339" fill="#30235B"/>
<path d="M547.196 154.427L557.329 156.308L550.633 164.144L547.196 154.427Z" fill="#30235B"/>
<path d="M515.634 151.05C517.968 145.187 524.613 142.326 530.476 144.66V144.66C536.339 146.994 539.2 153.639 536.866 159.503L530.412 175.715L509.18 167.262L515.634 151.05Z" fill="#30235B"/>
<path d="M522.366 167.591C498.803 158.339 483.125 179.065 477.59 190.042C493.951 213.368 523.921 215.764 537.503 214.59C542.276 202.779 545.93 176.843 522.366 167.591Z" fill="#30235B"/>
<path d="M45.9919 255.441C30.8299 264.722 26.0589 256.258 25.5686 250.867C25.5686 243.024 25.5686 236.489 15.2755 224.888C-9.55896 197.44 -1.7165 153.653 32.5943 150.875C66.9051 148.098 56.9386 169.828 44.8481 183.879C32.7816 197.902 40.4065 202.161 58.4651 212.248L58.5725 212.308C82.0999 226.522 62.4937 239.266 50.8934 241.554C39.2931 243.841 49.2595 250.867 45.9919 255.441Z" fill="url(#paint6_linear)"/>
<path d="M196.089 103.483C190.716 102.355 180.059 95.3081 181.021 79.118" stroke="#30235B" stroke-width="0.949425"/>
<path d="M271.78 16.6571C268.855 12.3154 261.945 5.89834 248.015 5.24023" stroke="#30235B" stroke-width="0.949425"/>
<path d="M80.3817 294.499C81.6643 279.806 68.0855 276.269 59.7797 276.27C58.7811 276.27 57.9288 276.954 57.6393 277.909C57.166 279.471 58.3638 281.046 59.9912 281.169C67.3256 281.721 77.2155 284.841 75.3912 294.499C73.6208 303.871 65.4975 305.638 59.7464 305.24C58.1618 305.131 56.6766 306.311 56.6766 307.899C56.6766 309.082 57.5134 310.11 58.6903 310.233C66.4491 311.047 79.1255 308.888 80.3817 294.499Z" fill="url(#paint7_linear)"/>
<path d="M59.0796 271.094V323.973C59.0796 325.683 57.693 327.07 55.9826 327.07H14.2349C12.5245 327.07 11.1379 325.683 11.1379 323.973L11.138 271.094C11.138 269.384 12.5245 267.997 14.235 267.997H55.9826C57.693 267.997 59.0796 269.384 59.0796 271.094Z" fill="url(#paint8_linear)"/>
<path d="M332.578 227.938L342.169 208.272" stroke="#30235B" stroke-width="0.949425"/>
<path d="M252.429 286.283C249.241 297.043 251.101 309.199 252.429 313.932L261.294 312.675C259.446 298.574 260.524 289.857 261.294 287.262L252.429 286.283Z" fill="#30235B"/>
<rect x="248.917" y="281.674" width="16.7668" height="4.34698" rx="2.17349" transform="rotate(6.01694 248.917 281.674)" fill="url(#paint9_linear)"/>
<rect opacity="0.5" x="331.949" y="0.949425" width="73.8938" height="57.2037" rx="2.54344" stroke="#F0F0F0" stroke-width="1.89885"/>
<path d="M379.688 27.5514C381.227 28.4402 381.227 30.6623 379.688 31.5512L360.414 42.6787C358.875 43.5675 356.95 42.4564 356.95 40.6788V18.4238C356.95 16.6461 358.875 15.5351 360.414 16.4239L379.688 27.5514Z" fill="#23BB86" fill-opacity="0.79"/>
<rect opacity="0.5" x="346.787" y="8.34375" width="42.583" height="39.2283" fill="white"/>
<rect opacity="0.5" x="29.9494" y="42.9494" width="99.9827" height="77.5477" rx="3.7977" stroke="#F0F0F0" stroke-width="1.89885"/>
<path d="M91.3292 81.7235C92.5374 81.7235 93.6961 82.2034 94.5504 83.0577C95.4047 83.912 95.8846 85.0707 95.8846 86.2789V99.945C95.8846 101.153 95.4047 102.312 94.5504 103.166C93.6961 104.02 92.5374 104.5 91.3292 104.5H68.5523C67.3441 104.5 66.1855 104.02 65.3312 103.166C64.4769 102.312 63.9969 101.153 63.9969 99.945V86.2789C63.9969 85.0707 64.4769 83.912 65.3312 83.0577C66.1855 82.2034 67.3441 81.7235 68.5523 81.7235V70.335C68.5523 67.3146 69.7522 64.4179 71.8879 62.2821C74.0237 60.1464 76.9204 58.9465 79.9408 58.9465C82.9612 58.9465 85.8579 60.1464 87.9936 62.2821C90.1294 64.4179 91.3292 67.3146 91.3292 70.335V81.7235ZM79.9408 97.6673C81.1489 97.6673 82.3076 97.1874 83.1619 96.3331C84.0162 95.4788 84.4962 94.3201 84.4962 93.1119C84.4962 91.9038 84.0162 90.7451 83.1619 89.8908C82.3076 89.0365 81.1489 88.5566 79.9408 88.5566C78.7326 88.5566 77.5739 89.0365 76.7196 89.8908C75.8653 90.7451 75.3854 91.9038 75.3854 93.1119C75.3854 94.3201 75.8653 95.4788 76.7196 96.3331C77.5739 97.1874 78.7326 97.6673 79.9408 97.6673ZM86.7739 81.7235V70.335C86.7739 68.5228 86.0539 66.7847 84.7725 65.5033C83.491 64.2218 81.753 63.5019 79.9408 63.5019C78.1285 63.5019 76.3905 64.2218 75.109 65.5033C73.8276 66.7847 73.1077 68.5228 73.1077 70.335V81.7235H86.7739Z" fill="url(#paint10_linear)"/>
<rect opacity="0.5" x="49.8923" y="50.0425" width="60.7536" height="58.4305" fill="white"/>
<rect opacity="0.5" x="437.758" y="13.1135" width="111.022" height="80.4669" rx="3.7977" stroke="#F7F7F7" stroke-width="1.89885"/>
<rect x="455.318" y="48.1719" width="18.9885" height="26.5653" rx="2.58027" fill="#FF7979"/>
<rect x="483.774" y="31.9568" width="18.9885" height="42.7804" rx="2.58027" fill="#9EFFAE"/>
<rect x="512.23" y="38.8569" width="18.9885" height="35.8803" rx="2.58027" fill="#FFDEAD"/>
<rect opacity="0.5" x="443.521" y="25.5562" width="96.4972" height="58.4137" fill="white"/>
<defs>
<linearGradient id="paint0_linear" x1="235.261" y1="112.563" x2="222.861" y2="360.901" gradientUnits="userSpaceOnUse">
<stop stop-color="#23BB86"/>
<stop offset="1" stop-color="#00FFA6"/>
</linearGradient>
<linearGradient id="paint1_linear" x1="235.127" y1="45.3437" x2="232.91" y2="155.644" gradientUnits="userSpaceOnUse">
<stop stop-color="#FFEFE0"/>
<stop offset="1" stop-color="#FFBE99"/>
</linearGradient>
<linearGradient id="paint2_linear" x1="236.808" y1="33.928" x2="236.808" y2="130.383" gradientUnits="userSpaceOnUse">
<stop stop-color="#FFEFE0"/>
<stop offset="1" stop-color="#FFBE99"/>
</linearGradient>
<linearGradient id="paint3_linear" x1="215.622" y1="234.635" x2="215.622" y2="318.501" gradientUnits="userSpaceOnUse">
<stop offset="0.0677966" stop-color="#FFEFE0"/>
<stop offset="1" stop-color="#FFBE99"/>
</linearGradient>
<linearGradient id="paint4_linear" x1="332.507" y1="111.546" x2="413.893" y2="206.794" gradientUnits="userSpaceOnUse">
<stop stop-color="#FFEFE0"/>
<stop offset="1" stop-color="#FFBE99"/>
</linearGradient>
<linearGradient id="paint5_linear" x1="435.21" y1="162.948" x2="389.565" y2="352.293" gradientUnits="userSpaceOnUse">
<stop offset="0.0171777" stop-color="white"/>
<stop offset="1" stop-color="#D7D7D7"/>
</linearGradient>
<linearGradient id="paint6_linear" x1="-22.6908" y1="267.388" x2="69.622" y2="150.633" gradientUnits="userSpaceOnUse">
<stop stop-color="#ECECEC"/>
<stop offset="1" stop-color="#F5F5F5" stop-opacity="0"/>
</linearGradient>
<linearGradient id="paint7_linear" x1="88.5126" y1="283.422" x2="56.6766" y2="284.121" gradientUnits="userSpaceOnUse">
<stop stop-color="white"/>
<stop offset="1" stop-color="#CCCCCC"/>
</linearGradient>
<linearGradient id="paint8_linear" x1="35.1088" y1="250.164" x2="35.1088" y2="345.388" gradientUnits="userSpaceOnUse">
<stop stop-color="white"/>
<stop offset="1" stop-color="#CCCCCC"/>
</linearGradient>
<linearGradient id="paint9_linear" x1="256.982" y1="280.824" x2="256.87" y2="286.092" gradientUnits="userSpaceOnUse">
<stop stop-color="#7F67CE"/>
<stop offset="1" stop-color="#30235B"/>
</linearGradient>
<linearGradient id="paint10_linear" x1="79.9408" y1="58.9465" x2="79.9408" y2="104.5" gradientUnits="userSpaceOnUse">
<stop stop-color="#FFD5B7"/>
<stop offset="1" stop-color="#FFAB6D"/>
</linearGradient>
</defs>
</svg>
